<svg height="512" viewBox="0 0 64 64" width="512" xmlns="http://www.w3.org/2000/svg"><g id="gear"><path d="m55.46 13.86 2.68-3.76-4.24-4.24-3.76 2.68a13.086 13.086 0 0 0 -2.38-.98l-.76-4.56h-6l-.76 4.56a13.086 13.086 0 0 0 -2.38.98l-3.76-2.68-2.1 2.1-2.1-2.1-3.76 2.68a13.086 13.086 0 0 0 -2.38-.98l-.76-4.56h-6l-.76 4.56a13.086 13.086 0 0 0 -2.38.98l-3.76-2.68-4.24 4.24 2.68 3.76a16.936 16.936 0 0 0 -.98 2.38l-4.56.76v6l4.56.76a13.086 13.086 0 0 0 .98 2.38l-2.68 3.76 2.1 2.1-2.1 2.1 2.68 3.76a16.936 16.936 0 0 0 -.98 2.38l-4.56.76v6l4.56.76a16.936 16.936 0 0 0 .98 2.38l-2.68 3.76 4.24 4.24 3.76-2.68a13.086 13.086 0 0 0 2.38.98l.76 4.56h6l.76-4.56a13.086 13.086 0 0 0 2.38-.98l3.76 2.68 2.1-2.1 2.1 2.1 3.76-2.68a13.086 13.086 0 0 0 2.38.98l.76 4.56h6l.76-4.56a13.086 13.086 0 0 0 2.38-.98l3.76 2.68 4.24-4.24-2.68-3.76a13.086 13.086 0 0 0 .98-2.38l4.56-.76v-6l-4.56-.76a13.086 13.086 0 0 0 -.98-2.38l2.68-3.76-2.1-2.1 2.1-2.1-2.68-3.76a13.086 13.086 0 0 0 .98-2.38l4.56-.76v-6l-4.56-.76a13.086 13.086 0 0 0 -.98-2.38zm-11.46 39.14a9.005 9.005 0 0 1 -8.61-6.36l-.39 2.36h-6l-.39-2.36a9 9 0 1 1 -11.25-11.25l-.65-.1v-.01l-1.71-.28v-6l2.36-.39a9 9 0 1 1 11.25-11.25l.39-2.36h6l.39 2.35a9.005 9.005 0 1 1 11.26 11.26l.64.1v.01l1.71.28v6l-1.71.28v.01l-.65.1a9 9 0 0 1 -2.64 17.61z" fill="#78b9eb"/><path d="m32 23-5 11h5v7l5-11h-5z" fill="#78b9eb"/><g fill="#1a6fb0"><path d="m33 23a1 1 0 0 0 -1.91-.414l-5 11a1 1 0 0 0 .91 1.414h4v6a1 1 0 0 0 .788.978 1.025 1.025 0 0 0 .212.022 1 1 0 0 0 .91-.586l5-11a1 1 0 0 0 -.91-1.414h-4zm2.447 8-2.447 5.383v-2.383a1 1 0 0 0 -1-1h-3.447l2.447-5.383v2.383a1 1 0 0 0 1 1z"/><path d="m31 18h2v2h-2z"/><path d="m21.808 21.808h2v2h-2z" transform="matrix(.707 -.707 .707 .707 -9.447 22.808)"/><path d="m18 31h2v2h-2z"/><path d="m21.808 40.192h2v2h-2z" transform="matrix(.707 -.707 .707 .707 -22.447 28.192)"/><path d="m31 44h2v2h-2z"/><path d="m40.192 40.192h2v2h-2z" transform="matrix(.707 -.707 .707 .707 -17.062 41.192)"/><path d="m44 31h2v2h-2z"/><path d="m40.192 21.808h2v2h-2z" transform="matrix(.707 -.707 .707 .707 -4.062 35.808)"/><path d="m43 6h2v2h-2z"/><path d="m56 19h2v2h-2z"/><path d="m52.192 9.808h2v2h-2z" transform="matrix(.707 -.707 .707 .707 7.938 40.778)"/><path d="m19 6h2v2h-2z"/><path d="m6 19h2v2h-2z"/><path d="m9.808 9.808h2v2h-2z" transform="matrix(.707 -.707 .707 .707 -4.477 10.808)"/><path d="m43 56h2v2h-2z"/><path d="m56 43h2v2h-2z"/><path d="m52.192 52.192h2v2h-2z" transform="matrix(.707 -.707 .707 .707 -22.033 53.192)"/><path d="m61.164 23.986a1 1 0 0 0 .836-.986v-6a1 1 0 0 0 -.836-.986l-3.961-.66a14.043 14.043 0 0 0 -.578-1.4l2.329-3.268a1 1 0 0 0 -.107-1.288l-4.24-4.24a1 1 0 0 0 -1.287-.108l-3.269 2.33a14.141 14.141 0 0 0 -1.405-.58l-.66-3.962a1 1 0 0 0 -.986-.838h-6a1 1 0 0 0 -.986.835l-.66 3.965a14.141 14.141 0 0 0 -1.405.578l-3.269-2.333a1 1 0 0 0 -1.287.108l-1.393 1.392-1.393-1.392a1 1 0 0 0 -1.287-.108l-3.269 2.33a14.141 14.141 0 0 0 -1.4-.578l-.66-3.962a1 1 0 0 0 -.991-.835h-6a1 1 0 0 0 -.986.835l-.66 3.965a14.141 14.141 0 0 0 -1.4.578l-3.274-2.333a1 1 0 0 0 -1.287.108l-4.24 4.24a1 1 0 0 0 -.107 1.288l2.34 3.282a12.9 12.9 0 0 0 -.571 1.388l-3.979.663a1 1 0 0 0 -.836.986v6a1 1 0 0 0 .836.986l3.961.66a14.043 14.043 0 0 0 .578 1.4l-2.329 3.273a1 1 0 0 0 .107 1.288l1.393 1.393-1.393 1.393a1 1 0 0 0 -.107 1.288l2.34 3.282a12.9 12.9 0 0 0 -.571 1.388l-3.979.663a1 1 0 0 0 -.836.986v6a1 1 0 0 0 .836.986l3.979.663a12.9 12.9 0 0 0 .571 1.388l-2.34 3.282a1 1 0 0 0 .107 1.288l4.24 4.24a1 1 0 0 0 1.287.108l3.269-2.33a14.141 14.141 0 0 0 1.4.578l.66 3.962a1 1 0 0 0 .991.835h6a1 1 0 0 0 .986-.835l.66-3.962a14.141 14.141 0 0 0 1.4-.578l3.269 2.33a1 1 0 0 0 1.287-.108l1.398-1.392 1.393 1.392a1 1 0 0 0 1.287.108l3.269-2.33a14.141 14.141 0 0 0 1.405.578l.66 3.962a1 1 0 0 0 .986.835h6a1 1 0 0 0 .986-.835l.66-3.962a14.141 14.141 0 0 0 1.405-.578l3.269 2.33a1 1 0 0 0 1.287-.108l4.24-4.24a1 1 0 0 0 .107-1.288l-2.329-3.268a14.043 14.043 0 0 0 .578-1.405l3.961-.66a1 1 0 0 0 .836-.986v-6a1 1 0 0 0 -.836-.986l-3.961-.66a14.043 14.043 0 0 0 -.578-1.405l2.329-3.268a1 1 0 0 0 -.107-1.288l-1.393-1.393 1.393-1.393a1 1 0 0 0 .107-1.288l-2.329-3.268a14.043 14.043 0 0 0 .578-1.4zm-14.208 17.332-2.332-3.265a14.2 14.2 0 0 0 .581-1.407l1.331-.222a7.993 7.993 0 1 1 -10.112 10.113l.222-1.332a13.976 13.976 0 0 0 1.408-.581l3.264 2.332a1 1 0 0 0 1.288-.107l4.244-4.243a1 1 0 0 0 .106-1.288zm-.415-13.742-1.336-.222a13.9 13.9 0 0 0 -.581-1.407l2.332-3.265a1 1 0 0 0 -.106-1.288l-4.244-4.243a1 1 0 0 0 -1.288-.107l-3.264 2.332a13.976 13.976 0 0 0 -1.408-.581l-.223-1.338a8 8 0 1 1 10.118 10.119zm-11.768-7.854a1 1 0 0 0 .7.793 11.964 11.964 0 0 1 2.2.908 1 1 0 0 0 1.054-.067l3.068-2.192 3.046 3.044-2.192 3.07a1 1 0 0 0 -.068 1.054 11.933 11.933 0 0 1 .908 2.2 1 1 0 0 0 .793.7l3.722.62v4.306l-3.722.62a1 1 0 0 0 -.793.7 11.86 11.86 0 0 1 -.909 2.2 1 1 0 0 0 .069 1.054l2.192 3.07-3.046 3.044-3.068-2.192a1 1 0 0 0 -1.054-.067 11.964 11.964 0 0 1 -2.2.908 1 1 0 0 0 -.7.793l-.62 3.712h-4.306l-.62-3.722a1 1 0 0 0 -.7-.793 11.964 11.964 0 0 1 -2.2-.908 1 1 0 0 0 -1.054.067l-3.068 2.192-3.046-3.044 2.192-3.07a1 1 0 0 0 .069-1.054 13.592 13.592 0 0 1 -.925-2.244 1 1 0 0 0 -.777-.651l-3.718-.62v-4.306l3.722-.62a1 1 0 0 0 .777-.651 16.456 16.456 0 0 1 .946-2.288 1 1 0 0 0 -.09-1.01l-2.192-3.07 3.046-3.044 3.06 2.186a1 1 0 0 0 1.062.073 11.964 11.964 0 0 1 2.2-.908 1 1 0 0 0 .7-.793l.616-3.722h4.306zm-17.729 2.96 2.343 3.28a13.043 13.043 0 0 0 -.573 1.389l-1.35.225a7.993 7.993 0 1 1 10.112-10.113l-.222 1.337a14.018 14.018 0 0 0 -1.442.6c-.629-.491-1.639-1.212-3.23-2.349a1 1 0 0 0 -1.288.107l-4.244 4.236a1 1 0 0 0 -.106 1.288zm.42 13.742 1.349.225a14.927 14.927 0 0 0 .563 1.4l-2.332 3.265a1 1 0 0 0 .106 1.288l4.244 4.243a1 1 0 0 0 1.288.107l3.264-2.332a13.976 13.976 0 0 0 1.408.581l.222 1.332a7.994 7.994 0 1 1 -10.112-10.109zm-8.11-9.7a1 1 0 0 0 .068-1.052 11.962 11.962 0 0 1 -.9-2.2 1 1 0 0 0 -.794-.7l-3.728-.619v-4.306l3.724-.62a1 1 0 0 0 .778-.652 16.5 16.5 0 0 1 .941-2.287 1 1 0 0 0 -.089-1.009l-2.188-3.07 3.042-3.043 3.072 2.188a1 1 0 0 0 1.051.068 12.11 12.11 0 0 1 2.2-.9 1 1 0 0 0 .7-.793l.617-3.729h4.3l.621 3.725a1 1 0 0 0 .7.793 12.11 12.11 0 0 1 2.2.9 1 1 0 0 0 1.051-.068l3.072-2.188 1.208 1.212v5.626h-2a.985.985 0 0 0 -.74.349 10.006 10.006 0 1 0 -13.91 13.911.984.984 0 0 0 -.35.74v2h-5.626l-1.208-1.209zm20.438 30.11-3.072-2.188a1 1 0 0 0 -1.051-.068 12.11 12.11 0 0 1 -2.2.9 1 1 0 0 0 -.7.793l-.617 3.729h-4.3l-.621-3.725a1 1 0 0 0 -.7-.793 12.11 12.11 0 0 1 -2.2-.9 1 1 0 0 0 -1.051.068l-3.072 2.188-3.042-3.047 2.188-3.07a1 1 0 0 0 .089-1.009 16.5 16.5 0 0 1 -.943-2.287 1 1 0 0 0 -.778-.652l-3.722-.62v-4.306l3.724-.62a1 1 0 0 0 .778-.652 16.5 16.5 0 0 1 .941-2.287 1 1 0 0 0 -.089-1.009l-2.188-3.07 1.208-1.209h5.626v2a.984.984 0 0 0 .35.74 10.006 10.006 0 1 0 13.91 13.911.985.985 0 0 0 .74.349h2v5.626zm24.854-19.555a1 1 0 0 0 -.068 1.052 11.962 11.962 0 0 1 .9 2.2 1 1 0 0 0 .794.7l3.724.62v4.306l-3.724.62a1 1 0 0 0 -.794.7 11.962 11.962 0 0 1 -.9 2.2 1 1 0 0 0 .068 1.052l2.188 3.07-3.042 3.043-3.072-2.196a1 1 0 0 0 -1.051-.068 12.11 12.11 0 0 1 -2.2.9 1 1 0 0 0 -.7.793l-.617 3.729h-4.3l-.621-3.725a1 1 0 0 0 -.7-.793 12.11 12.11 0 0 1 -2.2-.9 1 1 0 0 0 -1.051.068l-3.072 2.188-1.208-1.212v-5.626h2a.985.985 0 0 0 .74-.349 10.006 10.006 0 1 0 13.91-13.911.984.984 0 0 0 .35-.74v-2h5.626l1.208 1.209zm0-10.558 2.188 3.07-1.208 1.209h-5.626v-2a.989.989 0 0 0 -.351-.742 10 10 0 1 0 -13.907-13.907.986.986 0 0 0 -.742-.351h-2v-5.626l1.208-1.208 3.072 2.188a1 1 0 0 0 1.051.068 12.11 12.11 0 0 1 2.2-.9 1 1 0 0 0 .7-.793l.617-3.729h4.3l.621 3.725a1 1 0 0 0 .7.793 12.11 12.11 0 0 1 2.2.9 1 1 0 0 0 1.051-.068l3.072-2.188 3.042 3.043-2.188 3.07a1 1 0 0 0 -.068 1.052 11.962 11.962 0 0 1 .9 2.2 1 1 0 0 0 .794.7l3.724.62v4.306l-3.724.62a1 1 0 0 0 -.794.7 11.962 11.962 0 0 1 -.9 2.2 1 1 0 0 0 .068 1.048z"/><path d="m19 56h2v2h-2z"/><path d="m6 43h2v2h-2z"/><path d="m9.808 52.192h2v2h-2z" transform="matrix(.707 -.707 .707 .707 -34.447 23.222)"/></g></g></svg>